Normalized EMG Linear Envelopes
nRows=65
nColumns=17

endheader
time	        VM	        VL	        RF	       GRA	        TA	   ADDLONG	   SEMIMEM	      BFLH	        GM	        GL	       TFL	   GLUTMAX	   GLUTMED	      PIRI	    OBTINT	        QF	
1.934	  0.056739	  0.041096	  0.242275	  0.148905	  0.133039	  0.048155	  0.100056	  0.045902	  0.087017	  0.032535	  0.070097	  0.242945	  0.505394	  0.251383	  0.334456	  0.309922	
1.9345	  0.056438	  0.040314	  0.237053	  0.150625	  0.131837	  0.048051	  0.102519	  0.047041	  0.088388	  0.033105	  0.068824	  0.243619	  0.505715	  0.251668	  0.334281	  0.311962	
1.935	  0.056151	  0.039543	  0.231880	  0.152395	  0.130644	  0.047961	  0.105027	  0.048218	  0.089781	  0.033691	  0.067561	  0.244234	  0.505931	  0.251932	  0.334108	  0.314031	
1.9355	  0.055879	  0.038783	  0.226756	  0.154217	  0.129461	  0.047884	  0.107579	  0.049433	  0.091196	  0.034293	  0.066307	  0.244790	  0.506039	  0.252174	  0.333937	  0.316130	
1.936	  0.055623	  0.038033	  0.221683	  0.156089	  0.128288	  0.047822	  0.110176	  0.050685	  0.092633	  0.034911	  0.065063	  0.245284	  0.506033	  0.252394	  0.333769	  0.318260	
1.9365	  0.055382	  0.037295	  0.216661	  0.158013	  0.127124	  0.047774	  0.112818	  0.051977	  0.094092	  0.035545	  0.063828	  0.245716	  0.505910	  0.252592	  0.333604	  0.320419	
1.937	  0.055157	  0.036568	  0.211691	  0.159989	  0.125971	  0.047740	  0.115505	  0.053308	  0.095574	  0.036195	  0.062605	  0.246084	  0.505666	  0.252768	  0.333444	  0.322610	
1.9375	  0.054949	  0.035853	  0.206773	  0.162016	  0.124827	  0.047720	  0.118238	  0.054680	  0.097077	  0.036860	  0.061391	  0.246387	  0.505299	  0.252921	  0.333288	  0.324831	
1.938	  0.054758	  0.035150	  0.201909	  0.164096	  0.123694	  0.047715	  0.121017	  0.056092	  0.098602	  0.037541	  0.060189	  0.246626	  0.504805	  0.253052	  0.333138	  0.327082	
1.9385	  0.054584	  0.034459	  0.197099	  0.166227	  0.122571	  0.047724	  0.123842	  0.057547	  0.100148	  0.038238	  0.058998	  0.246799	  0.504181	  0.253162	  0.332994	  0.329365	
1.939	  0.054428	  0.033780	  0.192344	  0.168411	  0.121459	  0.047748	  0.126713	  0.059044	  0.101716	  0.038950	  0.057819	  0.246907	  0.503426	  0.253249	  0.332856	  0.331677	
1.9395	  0.054290	  0.033114	  0.187644	  0.170647	  0.120358	  0.047786	  0.129631	  0.060584	  0.103305	  0.039678	  0.056651	  0.246950	  0.502538	  0.253315	  0.332725	  0.334020	
1.94	  0.054170	  0.032461	  0.183000	  0.172934	  0.119268	  0.047839	  0.132595	  0.062168	  0.104914	  0.040421	  0.055495	  0.246929	  0.501516	  0.253360	  0.332601	  0.336394	
1.9405	  0.054070	  0.031821	  0.178413	  0.175274	  0.118191	  0.047907	  0.135606	  0.063797	  0.106545	  0.041179	  0.054352	  0.246843	  0.500359	  0.253384	  0.332485	  0.338798	
1.941	  0.053988	  0.031195	  0.173882	  0.177666	  0.117126	  0.047990	  0.138663	  0.065470	  0.108195	  0.041952	  0.053220	  0.246693	  0.499065	  0.253388	  0.332377	  0.341233	
1.9415	  0.053926	  0.030582	  0.169410	  0.180109	  0.116074	  0.048087	  0.141768	  0.067190	  0.109866	  0.042740	  0.052102	  0.246479	  0.497636	  0.253372	  0.332277	  0.343698	
1.942	  0.053884	  0.029983	  0.164995	  0.182604	  0.115035	  0.048198	  0.144920	  0.068957	  0.111556	  0.043543	  0.050996	  0.246203	  0.496069	  0.253336	  0.332186	  0.346195	
1.9425	  0.053861	  0.029397	  0.160639	  0.185150	  0.114010	  0.048325	  0.148118	  0.070770	  0.113265	  0.044361	  0.049903	  0.245865	  0.494366	  0.253281	  0.332102	  0.348723	
1.943	  0.053859	  0.028826	  0.156341	  0.187746	  0.112999	  0.048466	  0.151363	  0.072631	  0.114993	  0.045193	  0.048823	  0.245464	  0.492527	  0.253207	  0.332028	  0.351283	
1.9435	  0.053878	  0.028269	  0.152103	  0.190393	  0.112001	  0.048622	  0.154655	  0.074541	  0.116739	  0.046039	  0.047756	  0.245002	  0.490553	  0.253114	  0.331961	  0.353875	
1.944	  0.053918	  0.027727	  0.147925	  0.193090	  0.111019	  0.048792	  0.157993	  0.076500	  0.118503	  0.046900	  0.046703	  0.244479	  0.488446	  0.253003	  0.331903	  0.356499	
1.9445	  0.053979	  0.027199	  0.143806	  0.195837	  0.110051	  0.048977	  0.161377	  0.078508	  0.120285	  0.047774	  0.045663	  0.243895	  0.486208	  0.252876	  0.331853	  0.359157	
1.945	  0.054061	  0.026686	  0.139747	  0.198632	  0.109098	  0.049177	  0.164808	  0.080566	  0.122083	  0.048662	  0.044637	  0.243252	  0.483843	  0.252731	  0.331811	  0.361848	
1.9455	  0.054165	  0.026188	  0.135749	  0.201475	  0.108161	  0.049390	  0.168284	  0.082675	  0.123898	  0.049564	  0.043624	  0.242549	  0.481354	  0.252571	  0.331777	  0.364573	
1.946	  0.054292	  0.025706	  0.131811	  0.204366	  0.107239	  0.049618	  0.171806	  0.084834	  0.125728	  0.050479	  0.042626	  0.241789	  0.478744	  0.252395	  0.331750	  0.367333	
1.9465	  0.054441	  0.025239	  0.127933	  0.207304	  0.106334	  0.049861	  0.175373	  0.087046	  0.127573	  0.051408	  0.041641	  0.240971	  0.476017	  0.252204	  0.331730	  0.370127	
1.947	  0.054612	  0.024787	  0.124116	  0.210288	  0.105445	  0.050117	  0.178985	  0.089309	  0.129433	  0.052349	  0.040671	  0.240097	  0.473177	  0.251999	  0.331718	  0.372956	
1.9475	  0.054806	  0.024351	  0.120360	  0.213317	  0.104572	  0.050388	  0.182641	  0.091625	  0.131306	  0.053303	  0.039715	  0.239168	  0.470229	  0.251779	  0.331711	  0.375819	
1.948	  0.055023	  0.023930	  0.116665	  0.216390	  0.103716	  0.050672	  0.186341	  0.093993	  0.133193	  0.054269	  0.038773	  0.238186	  0.467176	  0.251546	  0.331709	  0.378718	
1.9485	  0.055264	  0.023526	  0.113031	  0.219507	  0.102878	  0.050970	  0.190084	  0.096415	  0.135092	  0.055247	  0.037845	  0.237151	  0.464021	  0.251300	  0.331713	  0.381651	
1.949	  0.055527	  0.023137	  0.109458	  0.222666	  0.102058	  0.051282	  0.193871	  0.098890	  0.137002	  0.056238	  0.036932	  0.236066	  0.460768	  0.251041	  0.331720	  0.384620	
1.9495	  0.055815	  0.022765	  0.105945	  0.225867	  0.101255	  0.051607	  0.197699	  0.101419	  0.138923	  0.057240	  0.036033	  0.234932	  0.457422	  0.250769	  0.331732	  0.387622	
1.95	  0.056126	  0.022409	  0.102493	  0.229108	  0.100471	  0.051946	  0.201569	  0.104002	  0.140854	  0.058253	  0.035149	  0.233751	  0.453985	  0.250486	  0.331747	  0.390660	
1.9505	  0.056461	  0.022069	  0.099102	  0.232388	  0.099705	  0.052298	  0.205480	  0.106639	  0.142794	  0.059278	  0.034279	  0.232525	  0.450460	  0.250192	  0.331764	  0.393731	
1.951	  0.056819	  0.021745	  0.095772	  0.235706	  0.098957	  0.052663	  0.209431	  0.109332	  0.144742	  0.060314	  0.033424	  0.231255	  0.446853	  0.249887	  0.331784	  0.396837	
1.9515	  0.057202	  0.021438	  0.092502	  0.239062	  0.098229	  0.053041	  0.213421	  0.112079	  0.146697	  0.061359	  0.032583	  0.229943	  0.443165	  0.249572	  0.331805	  0.399978	
1.952	  0.057609	  0.021148	  0.089292	  0.242455	  0.097520	  0.053432	  0.217450	  0.114882	  0.148659	  0.062416	  0.031757	  0.228592	  0.439400	  0.249248	  0.331827	  0.403152	
1.9525	  0.058041	  0.020874	  0.086143	  0.245882	  0.096830	  0.053836	  0.221517	  0.117740	  0.150625	  0.063481	  0.030945	  0.227203	  0.435563	  0.248916	  0.331850	  0.406362	
1.953	  0.058497	  0.020618	  0.083053	  0.249344	  0.096159	  0.054253	  0.225620	  0.120654	  0.152596	  0.064557	  0.030148	  0.225778	  0.431657	  0.248578	  0.331873	  0.409606	
1.9535	  0.058977	  0.020377	  0.080023	  0.252838	  0.095508	  0.054682	  0.229758	  0.123623	  0.154570	  0.065641	  0.029366	  0.224319	  0.427685	  0.248233	  0.331895	  0.412885	
1.954	  0.059482	  0.020154	  0.077053	  0.256365	  0.094876	  0.055124	  0.233932	  0.126649	  0.156547	  0.066734	  0.028598	  0.222827	  0.423652	  0.247884	  0.331916	  0.416200	
1.9545	  0.060011	  0.019948	  0.074142	  0.259922	  0.094264	  0.055579	  0.238138	  0.129730	  0.158524	  0.067836	  0.027844	  0.221304	  0.419561	  0.247530	  0.331935	  0.419550	
1.955	  0.060565	  0.019759	  0.071290	  0.263508	  0.093671	  0.056047	  0.242378	  0.132868	  0.160501	  0.068945	  0.027105	  0.219752	  0.415417	  0.247175	  0.331951	  0.422936	
1.9555	  0.061144	  0.019586	  0.068497	  0.267122	  0.093098	  0.056526	  0.246648	  0.136063	  0.162476	  0.070061	  0.026381	  0.218172	  0.411222	  0.246817	  0.331962	  0.426358	
1.956	  0.061747	  0.019431	  0.065761	  0.270764	  0.092545	  0.057018	  0.250948	  0.139313	  0.164449	  0.071185	  0.025670	  0.216567	  0.406982	  0.246460	  0.331970	  0.429815	
1.9565	  0.062375	  0.019293	  0.063084	  0.274432	  0.092011	  0.057523	  0.255277	  0.142620	  0.166418	  0.072314	  0.024975	  0.214938	  0.402699	  0.246103	  0.331971	  0.433308	
1.957	  0.063027	  0.019172	  0.060464	  0.278126	  0.091497	  0.058040	  0.259634	  0.145983	  0.168383	  0.073450	  0.024293	  0.213286	  0.398377	  0.245748	  0.331966	  0.436836	
1.9575	  0.063704	  0.019069	  0.057902	  0.281846	  0.091001	  0.058570	  0.264017	  0.149403	  0.170342	  0.074591	  0.023625	  0.211614	  0.394022	  0.245395	  0.331953	  0.440398	
1.958	  0.064406	  0.018982	  0.055396	  0.285591	  0.090526	  0.059112	  0.268426	  0.152879	  0.172294	  0.075737	  0.022972	  0.209922	  0.389635	  0.245047	  0.331931	  0.443995	
1.9585	  0.065132	  0.018913	  0.052946	  0.289361	  0.090069	  0.059666	  0.272858	  0.156411	  0.174239	  0.076888	  0.022332	  0.208214	  0.385221	  0.244703	  0.331899	  0.447625	
1.959	  0.065883	  0.018860	  0.050552	  0.293157	  0.089631	  0.060233	  0.277312	  0.159999	  0.176175	  0.078042	  0.021707	  0.206491	  0.380783	  0.244365	  0.331857	  0.451289	
1.9595	  0.066659	  0.018825	  0.048214	  0.296978	  0.089212	  0.060813	  0.281788	  0.163643	  0.178102	  0.079199	  0.021095	  0.204753	  0.376325	  0.244034	  0.331802	  0.454984	
1.96	  0.067459	  0.018808	  0.045931	  0.300825	  0.088812	  0.061406	  0.286283	  0.167343	  0.180018	  0.080359	  0.020497	  0.203004	  0.371850	  0.243710	  0.331735	  0.458710	
1.9605	  0.068284	  0.018807	  0.043702	  0.304697	  0.088430	  0.062011	  0.290797	  0.171098	  0.181924	  0.081521	  0.019913	  0.201245	  0.367362	  0.243395	  0.331654	  0.462467	
1.961	  0.069133	  0.018824	  0.041527	  0.308596	  0.088066	  0.062629	  0.295326	  0.174908	  0.183819	  0.082684	  0.019343	  0.199477	  0.362864	  0.243089	  0.331558	  0.466252	
1.9615	  0.070007	  0.018858	  0.039406	  0.312521	  0.087719	  0.063261	  0.299871	  0.178773	  0.185702	  0.083848	  0.018785	  0.197702	  0.358358	  0.242793	  0.331447	  0.470066	
1.962	  0.070905	  0.018909	  0.037337	  0.316474	  0.087391	  0.063906	  0.304428	  0.182691	  0.187572	  0.085013	  0.018242	  0.195922	  0.353849	  0.242509	  0.331319	  0.473906	
1.9625	  0.071828	  0.018977	  0.035321	  0.320454	  0.087079	  0.064563	  0.308997	  0.186664	  0.189429	  0.086177	  0.017711	  0.194138	  0.349339	  0.242236	  0.331173	  0.477771	
1.963	  0.072774	  0.019063	  0.033356	  0.324464	  0.086784	  0.065235	  0.313575	  0.190690	  0.191273	  0.087341	  0.017193	  0.192351	  0.344830	  0.241975	  0.331010	  0.481661	
1.9635	  0.073745	  0.019165	  0.031443	  0.328504	  0.086505	  0.065919	  0.318161	  0.194769	  0.193101	  0.088503	  0.016689	  0.190564	  0.340326	  0.241728	  0.330827	  0.485574	
1.964	  0.074740	  0.019285	  0.029581	  0.332575	  0.086243	  0.066617	  0.322754	  0.198900	  0.194915	  0.089663	  0.016197	  0.188777	  0.335828	  0.241494	  0.330623	  0.489508	
1.9645	  0.075758	  0.019422	  0.027768	  0.336678	  0.085996	  0.067328	  0.327351	  0.203082	  0.196712	  0.090820	  0.015718	  0.186991	  0.331341	  0.241274	  0.330398	  0.493462	
1.965	  0.076800	  0.019575	  0.026006	  0.340815	  0.085764	  0.068053	  0.331950	  0.207315	  0.198493	  0.091974	  0.015252	  0.185209	  0.326866	  0.241069	  0.330151	  0.497435	
1.9655	  0.077866	  0.019746	  0.024292	  0.344985	  0.085547	  0.068792	  0.336551	  0.211599	  0.200257	  0.093125	  0.014798	  0.183431	  0.322406	  0.240879	  0.329880	  0.501426	
1.966	  0.078956	  0.019933	  0.022626	  0.349191	  0.085346	  0.069545	  0.341150	  0.215931	  0.202002	  0.094270	  0.014357	  0.181658	  0.317963	  0.240705	  0.329585	  0.505432	
